<svg xmlns="http://www.w3.org/2000/svg" viewBox="0 0 512 512">
  <rect width="512" height="512" rx="96" fill="#03050a"/>
  <circle cx="256" cy="256" r="196" fill="none" stroke="#f6a21a" stroke-width="14" opacity="0.42"/>
  <path d="M438 232 292 218 236 88h-42l36 126-114-14-38-54H42l24 94-24 94h36l38-54 114-14-36 126h42l56-130 146-14c18-2 32-17 32-34s-14-32-32-34Z" fill="#f6a21a"/>
  <path d="M438 232 292 218 236 88h-42l36 126-114-14-38-54H42l24 94-24 94h36l38-54 114-14-36 126h42l56-130 146-14c18-2 32-17 32-34s-14-32-32-34Z" fill="#ffffff" opacity="0.08"/>
</svg>
